<?xml version="1.0" encoding="utf-8"?>
<!-- Generator: Adobe Illustrator 25.1.0, SVG Export Plug-In . SVG Version: 6.00 Build 0)  -->
<svg version="1.1" id="Calque_1" xmlns="http://www.w3.org/2000/svg" xmlns:xlink="http://www.w3.org/1999/xlink" x="0px" y="0px"
	 viewBox="0 0 253.8 56.7" style="enable-background:new 0 0 253.8 56.7;" xml:space="preserve">
<style type="text/css">
	.st0{fill:none;}
</style>
<g>
	<g id="Calque_2_1_">
		<g id="Calque_1-2">
			<path d="M62,22.2L62,22.2c-0.9,1.6-2.6,2.5-4.5,2.4c-2,0.1-3.9-0.7-5.3-2.1c-1.4-1.6-2.1-3.7-2.1-5.9c-0.1-2.4,0.9-4.8,2.7-6.4
				c1.4-1.2,3.1-1.8,4.9-1.7c3.9,0,6.2,2.1,6.8,5H61c-0.4-1.3-1.7-2.2-3.1-2.1c-2.8,0-4.1,2.2-4.1,5.1s1.6,5.1,4.1,5.1
				c1.8,0.2,3.4-1.2,3.5-2.9c0,0,0,0,0-0.1v-0.1h-3.1V16h6.5v8.3h-2.5L62,22.2z"/>
			<path d="M69.7,15.2L69.7,15.2c0.5-1.3,1.7-2.2,3.1-2.2c0.2,0,0.5,0,0.7,0.1V16h-0.1c-0.2,0-0.5-0.1-0.7-0.1
				c-1.8,0-2.9,1.1-2.9,3.2v5.1h-3.3v-11h3.2C69.7,13.2,69.7,15.2,69.7,15.2z"/>
			<path d="M81.4,20.3v-1.4c-0.6,0.3-1.3,0.5-1.9,0.6c-1.4,0.3-2.1,0.7-2.1,1.6c0,1,0.7,1.3,1.6,1.3c1.2,0.1,2.3-0.7,2.4-1.9
				C81.4,20.4,81.4,20.4,81.4,20.3 M81.4,22.9L81.4,22.9c-0.8,1.1-2.1,1.8-3.4,1.6c-2.2,0-3.8-1.2-3.8-3.4c0-2.5,1.9-3.1,4.3-3.4
				c2-0.3,2.8-0.6,2.8-1.4S80.8,15,79.7,15s-1.9,0.6-2,1.4h-3c0.1-1.9,1.6-3.7,4.9-3.7c1.1-0.1,2.2,0.2,3.2,0.7
				c1.1,0.7,1.8,2,1.7,3.3v5.7c0,0.9,0.1,1.4,0.4,1.5v0.2h-3.2C81.5,23.8,81.4,23.4,81.4,22.9"/>
			<path d="M89.5,14.9L89.5,14.9c0.7-1.3,2-2.1,3.5-2c2.4,0,3.8,1.6,3.8,4.1v7.3h-3.2v-6.7c0.1-1-0.6-1.9-1.6-2c-0.1,0-0.2,0-0.3,0
				c-1.2,0-2.2,1-2.1,2.2c0,0.1,0,0.1,0,0.2v6.2h-3.3v-11h3.2V14.9z"/>
			<path d="M106.1,18.7c0-2-0.8-3.4-2.5-3.4s-2.3,1.4-2.3,3.4s0.8,3.3,2.3,3.3S106.1,20.7,106.1,18.7 M98,18.7
				c0-3.4,1.9-5.9,4.8-5.9c1.4,0,2.6,0.7,3.3,1.9l0,0c0-0.7-0.1-1.6-0.1-2.6V8.8h3.3v15.5h-3.2v-1.6l0,0c-0.6,1.3-2,2.1-3.4,2
				C99.9,24.7,98,22.4,98,18.7"/>
			<path d="M119.5,16.1h3c1.1,0.1,2.2-0.7,2.3-1.8c0-0.1,0-0.3,0-0.4c0.1-1.1-0.7-2.1-1.8-2.1c-0.1,0-0.3,0-0.4,0h-3L119.5,16.1z
				 M115.9,8.8h6.9c1.5-0.1,3,0.4,4.2,1.4c1,1,1.5,2.3,1.5,3.7c0,2.9-2,5-5.2,5h-3.7v5.4H116L115.9,8.8z"/>
			<path d="M136.4,20.3v-1.4c-0.6,0.3-1.2,0.5-1.9,0.6c-1.4,0.3-2.1,0.7-2.1,1.6c0,1,0.7,1.3,1.6,1.3c1.2,0.1,2.3-0.8,2.4-2
				C136.4,20.4,136.4,20.4,136.4,20.3 M136.4,22.9L136.4,22.9c-0.7,1.1-2,1.7-3.4,1.6c-2.2,0-3.8-1.2-3.8-3.4c0-2.5,1.9-3.1,4.4-3.4
				c2-0.3,2.8-0.6,2.8-1.4s-0.5-1.3-1.6-1.3s-1.9,0.6-1.9,1.5h-3c0.1-1.9,1.6-3.7,4.9-3.7c1.1-0.1,2.2,0.2,3.2,0.7
				c1.1,0.7,1.8,2,1.7,3.3v5.7c0,0.9,0.1,1.4,0.4,1.5v0.2h-3.3C136.5,23.8,136.3,23.4,136.4,22.9"/>
			<path d="M140.6,13.2h1.7V9.7h3.2v3.5h2.2v2.1h-2.2v5.5c0,0.8,0.5,1.1,1.2,1.1c0.2,0,0.5,0,0.8,0h0.2v2.4
				c-0.6,0.1-1.3,0.2-1.9,0.2c-2.1,0-3.5-0.7-3.5-2.9v-6.2h-1.7V13.2z"/>
			<path d="M152.1,15.2L152.1,15.2c0.5-1.3,1.8-2.2,3.1-2.2c0.2,0,0.5,0,0.7,0.1V16h-0.1c-0.2,0-0.5-0.1-0.7-0.1
				c-1.8,0-2.9,1.1-2.9,3.2v5.1H149v-11h3.1V15.2z"/>
			<path d="M157.1,13.2h3.3v11.1h-3.3V13.2z M157.1,8.8h3.3v2.9h-3.3V8.8z"/>
			<path d="M162.2,13.2h3.1v1.7h0.1c0.6-1.3,1.9-2.1,3.3-2c1.4,0,2.6,0.8,3,2.1l0,0c0.7-1.3,2-2.1,3.5-2.1c2.5,0,3.7,1.6,3.7,4.1
				v7.3h-3.2v-6.8c0-1.2-0.6-1.9-1.6-1.9s-1.9,1-1.9,2.4v6.3H169v-6.8c0-1.2-0.5-1.9-1.6-1.9s-1.9,1-1.9,2.4v6.3h-3.3V13.2z"/>
			<path d="M188.6,18.8c0-2.1-0.9-3.5-2.6-3.5s-2.5,1.4-2.5,3.5s0.9,3.5,2.5,3.5S188.6,20.8,188.6,18.8 M180.2,18.8
				c-0.1-3.2,2.4-6,5.6-6.1c3.2-0.1,6,2.4,6.1,5.6c0,0.2,0,0.3,0,0.5c0.1,3.2-2.4,6-5.6,6.1c-3.2,0.1-6-2.4-6.1-5.6
				C180.2,19.1,180.2,18.9,180.2,18.8"/>
			<path d="M193.2,13.2h3.3v11.1h-3.3V13.2z M193.2,8.8h3.3v2.9h-3.3V8.8z"/>
			<path d="M201.4,14.9L201.4,14.9c0.7-1.3,2-2.1,3.5-2c2.4,0,3.9,1.6,3.9,4.1v7.3h-3.2v-6.7c0.1-1-0.6-1.9-1.6-2
				c-0.1,0-0.2,0-0.3,0c-1.2,0-2.2,1-2.1,2.2c0,0.1,0,0.1,0,0.2v6.2h-3.3v-11h3.2L201.4,14.9z"/>
			<path d="M213.1,17.7h4.7c-0.1-1.5-1-2.5-2.3-2.5C214.1,15.2,213.3,16.2,213.1,17.7 M209.9,18.8c-0.2-3.1,2.2-5.7,5.3-5.9
				c0.1,0,0.3,0,0.4,0c1.4,0,2.8,0.5,3.8,1.4c1.3,1.4,1.9,3.3,1.8,5.3h-8.1c0.2,1.7,1.1,2.7,2.7,2.7c0.8,0.1,1.6-0.4,2-1.1h3.2
				c-0.6,2-2.4,3.5-5.2,3.5c-3.1,0.2-5.7-2.2-5.9-5.3C209.9,19.1,209.9,18.9,209.9,18.8"/>
			<path d="M58.7,42.3c0-2.5-1.5-4.5-3.3-4.5c-0.6,0-1.3,0.3-1.7,0.7c-0.8,0.8-1,1.9-1,4.3s0.4,3.6,1.4,4.3c0.4,0.3,0.8,0.4,1.3,0.4
				C57.4,47.4,58.8,45.4,58.7,42.3 M56.2,31.6c1.3,0,2.5,0,3.8-0.1h0.3h0.3v14.3c0,1,0.5,1.5,1.4,1.5h0.7v0.3h-2
				c-0.6,0-1.2,0.1-1.8,0.2h-0.2V45c-0.3,0.8-1.3,2.9-3.6,2.9s-4.6-2.5-4.6-5.3s2.1-5.2,4.6-5.2c1.5,0,2.6,0.8,3.5,2.6v-6.5
				c0.1-0.7-0.5-1.4-1.2-1.5c-0.1,0-0.1,0-0.2,0h-1.1L56.2,31.6L56.2,31.6z"/>
			<path d="M70.2,41.8c0.5,0,0.7-0.2,0.7-0.8c0-2-1-3.3-2.6-3.3c-0.9,0.1-1.7,0.7-2,1.6c-0.3,0.8-0.5,1.6-0.4,2.5H70.2z M73,43.9
				c-0.1,0.6-0.3,1.2-0.7,1.8c-0.8,1.4-2.2,2.2-3.8,2.3c-2.7,0-4.8-2.4-4.8-5.4c0-2.9,2-5.2,4.5-5.2s4.4,2,4.6,4.9h-7.1
				c0,1.6,0,5.2,3,5.2c1.9,0,3.3-1.4,3.8-3.6H73z"/>
			<path d="M79.7,47.4h2.1c0.8,0,1.1-0.4,1.2-1.4V33.4c0-0.9-0.4-1.4-1.2-1.4h-2.1v-0.4h8.4V32h-1.7c-0.8,0-1.2,0.5-1.2,1.4v12.7
				c0,0.8,0.3,1.2,1,1.2H88c2.7,0,5.1-2.4,5.8-5.9h0.3L94,47.7H79.7V47.4z"/>
			<path d="M104,42.5c0-3.2-1-4.8-3-4.8s-3.1,1.5-3.1,5c0,3.2,1,4.8,3,4.8C103.1,47.5,104,46,104,42.5 M95.9,42.6
				c0-2.8,2.4-5.4,4.9-5.4c2.9,0,5.2,2.4,5.2,5.2v0.1c0,2.8-2.3,5.1-5.1,5.1C98.1,47.7,95.9,45.4,95.9,42.6L95.9,42.6"/>
			<path d="M109,33c0-0.6,0.5-1.2,1.2-1.2s1.2,0.5,1.2,1.2c0,0.6-0.5,1.2-1.2,1.2l0,0C109.5,34.2,109,33.6,109,33 M111.1,37.5
				c0,1.7,0,3.3,0,4.9c0,4,0,4.2,0.1,4.5c0.1,0.2,0.2,0.5,0.9,0.5h0.8v0.3h-5.3v-0.3h0.8c0.7,0,1-0.3,1-1.2v-7
				c0-0.7-0.4-1.1-1.2-1.1h-0.7v-0.4c0.9,0,1.7,0,2.1-0.1l1.3-0.2L111.1,37.5z"/>
			<path d="M116.6,39.2c0-0.7-0.4-1.1-1.2-1.1h-0.7v-0.4c0.9,0,1.7,0,2.1-0.1l1.3-0.2h0.3v2.7c0.6-1.4,1.2-2.8,2.8-2.8
				c1-0.1,1.9,0.7,1.9,1.7c0,0.1,0,0.1,0,0.2c0.1,0.6-0.4,1.2-1,1.3c-0.6,0-1-0.4-1-1c0,0,0,0,0-0.1c0-0.4,0.2-0.8,0.6-1
				c0.2-0.2,0.3-0.3,0.3-0.4c0-0.2-0.2-0.4-0.7-0.4s-1,0.2-1.4,0.5c-1.4,1.3-1.4,3.3-1.4,4.9v3c0,0.9,0.2,1.2,1,1.2h0.8v0.3H115
				v-0.3h0.8c0.7,0,1-0.3,1-1.2L116.6,39.2z"/>
			<path d="M130.4,41.8c0.5,0,0.7-0.2,0.7-0.8c0-2-1-3.3-2.5-3.3c-0.9,0-1.7,0.7-2,1.6c-0.3,0.8-0.5,1.6-0.4,2.5H130.4z M133.3,43.9
				c-0.1,0.6-0.3,1.3-0.7,1.8c-0.8,1.4-2.2,2.3-3.8,2.3c-2.7,0-4.8-2.4-4.8-5.4c0-2.9,2-5.2,4.5-5.2s4.4,2,4.6,4.9H126
				c0,1.6,0,5.2,3,5.2c1.9,0,3.4-1.4,3.9-3.6H133.3z"/>
			<rect x="135.2" y="42" width="5.1" height="1"/>
			<path d="M149.9,34l-2.9,7.8h5.5L149.9,34z M142.2,47.4c2.3,0,2.9-1.7,3.5-3.4l4.7-12.6h0.9l4.7,13.8c0.7,1.9,0.9,2.1,2.1,2.1h0.4
				v0.3h-7.4v-0.3h2c0.6,0,0.9-0.2,0.9-0.7c0-0.2,0-0.5-0.1-0.7l-1.2-3.6h-6l-0.2,0.4c-0.4,0.9-0.6,1.8-0.7,2.7c0,1.1,1,1.9,2.6,1.9
				h0.6v0.3h-6.8V47.4z"/>
			<path d="M159.6,38c2.4-0.8,3.1-2.7,3.4-4.9h0.5v4.7h3.3v0.7h-3.3v7.1c0,1,0.6,1.7,1.4,1.7c1.6,0,2.4-1.6,2.4-4.9h0.3
				c0,2.6-0.3,3.8-1.2,4.7c-0.6,0.5-1.3,0.8-2.1,0.8c-1.4,0.1-2.6-0.9-2.7-2.3c0-0.2,0-0.4,0-0.5v-6.6h-2.1L159.6,38z"/>
			<path d="M170.9,33.5c0-0.9-0.3-1.3-1-1.3H169v-0.4c0.8,0,1.7-0.1,2-0.1l1.2-0.2h0.6c-0.1,4.2-0.1,7.1-0.1,9c0,6.5,0,6.3,0.3,6.6
				c0.2,0.2,0.5,0.2,0.7,0.2h0.8v0.3h-5.3v-0.3h0.9c0.7,0,0.9-0.3,0.9-1.2L170.9,33.5z"/>
			<path d="M182.6,42c-0.5,0.2-0.9,0.4-1.4,0.5c-1.1,0.3-2.9,0.8-2.9,2.8c0,1.2,0.7,2,1.6,2c1.4,0,2.7-1.6,2.7-3.4L182.6,42z
				 M187,43.4c0,3-0.8,4.5-2.3,4.5c-1,0-1.6-0.8-1.9-2.5c-0.8,1.8-1.8,2.5-3.4,2.5c-1.5,0.1-2.9-1.1-3-2.6c0-0.6,0.3-1.2,0.7-1.7
				c0.9-0.7,2-1.2,3.1-1.3c0.8-0.2,1.6-0.4,2.3-0.7v-1.7c0-1.3-0.8-2-2.3-2c-1,0-2.1,0.5-2.1,1c0,0.2,0.1,0.3,0.4,0.4
				c0.6,0.3,0.7,0.6,0.7,1c0,0.6-0.4,1-1,1c-0.7-0.1-1.2-0.7-1.2-1.4c0-1.5,1.6-2.7,3.7-2.7c2.4,0,3.6,1.1,3.6,3.2v4.5
				c0,1.2,0.3,1.9,0.9,1.9c0.8,0,1.2-0.9,1.3-3.2v-0.5L187,43.4z"/>
			<path d="M191.8,40.5c0.5-1.7,1.9-2.9,3.6-3c0.8,0,1.6,0.3,2.1,0.8c0.7,0.9,1.1,2,1.1,3.2v4.7c0,0.9,0.3,1.2,0.9,1.2h0.8v0.3H195
				v-0.3h0.8c0.7,0,1-0.3,1-1.2v-5.3c0-2-0.6-2.9-1.8-2.9c-1.9,0-3.3,2.1-3.3,5.1v3.1c0,0.9,0.2,1.2,0.9,1.2h0.8v0.3h-5.3v-0.3h0.8
				c0.7,0,1-0.3,1-1.2v-7c0-0.7-0.4-1-1.2-1h-0.6v-0.4h0.8c0.2,0,1.4-0.1,1.7-0.1l0.7-0.1h0.5L191.8,40.5z"/>
			<path d="M201.2,38c2.4-0.8,3.1-2.7,3.5-4.9h0.5v4.7h3.3v0.7h-3.3v7.1c0,1,0.6,1.7,1.4,1.7c1.6,0,2.4-1.6,2.4-4.9h0.3
				c0,2.6-0.3,3.8-1.2,4.7c-0.6,0.5-1.3,0.8-2.1,0.8c-1.4,0.1-2.6-0.9-2.7-2.3c0-0.2,0-0.4,0-0.5v-6.6h-2.1L201.2,38z"/>
			<path d="M212.2,33c0-0.6,0.5-1.2,1.2-1.2c0.6,0,1.2,0.5,1.2,1.2c0,0.6-0.5,1.2-1.2,1.2l0,0C212.7,34.2,212.2,33.6,212.2,33
				 M214.3,37.5c0,1.7,0,3.3,0,4.9c0,4,0,4.2,0.1,4.5c0.1,0.2,0.2,0.5,0.9,0.5h0.7v0.3h-5.3v-0.3h0.8c0.7,0,1-0.3,1-1.2v-7
				c0-0.7-0.4-1.1-1.2-1.1h-0.7v-0.4c0.9,0,1.7,0,2.1-0.1l1.3-0.2L214.3,37.5z"/>
			<path d="M226.6,42.3c0-3-1.2-4.7-3.3-4.7c-0.7,0-1.3,0.3-1.8,0.7c-0.8,0.8-1.1,2-1.1,4.4c0,2.6,0.8,4.7,2.7,4.7
				C225.3,47.4,226.6,45.4,226.6,42.3 M228.3,37.3c-0.1,4.2-0.1,7-0.1,8.9c0,6.4,0,6.2,0.3,6.5c0.2,0.2,0.5,0.2,0.7,0.2h0.7v0.4
				h-5.3v-0.4h0.8c0.7,0,0.9-0.3,0.9-1.2v-6.5c-0.8,1.8-2,2.7-3.6,2.7c-2.3,0-4.5-2.6-4.5-5.4s2.2-5.3,4.8-5.3c1.6,0,2.9,1,3.7,2.9
				c0.5-0.8,0.9-1.8,0.9-2.7L228.3,37.3L228.3,37.3z"/>
			<path d="M230.8,37.7c0.9,0,1.8,0,2.6-0.2c0.2,0,0.4-0.1,0.6-0.1h0.6v7.8c0,1.3,0.6,2,1.5,2c1.7,0,3.2-2.3,3.2-5v-3.1
				c0-0.8-0.4-1.1-1.3-1.1h-1.2v-0.4h1.4c0.7,0,1.3-0.1,2-0.2h0.2h0.6V46c0,0.9,0.4,1.3,1.3,1.3h0.5v0.3h-2.4c-0.2,0-0.3,0-0.5,0
				h-0.6v-2.9c-0.9,2-2.2,3-3.7,3c-1.6,0-2.9-1.3-2.8-2.9v-0.1V39c0-0.5-0.5-1-1-1h-1L230.8,37.7z"/>
			<path d="M251,41.8c0.5,0,0.7-0.2,0.7-0.8c0-2-1-3.3-2.5-3.3c-0.9,0-1.8,0.7-2.1,1.6c-0.3,0.8-0.5,1.6-0.4,2.5H251z M253.9,43.9
				c-0.1,0.6-0.3,1.3-0.7,1.8c-0.8,1.4-2.2,2.3-3.8,2.3c-2.7,0-4.8-2.4-4.8-5.4c0-2.9,2-5.2,4.5-5.2s4.4,2,4.6,4.9h-7.1
				c0,1.6,0,5.2,3,5.2c1.9,0,3.4-1.4,3.9-3.6H253.9z"/>
			<rect x="7.4" y="8.8" width="24.2" height="6.7"/>
			<rect x="7.4" y="41.1" width="24.2" height="6.7"/>
			<polyline points="0,16.2 6.7,16.2 6.7,40.4 0,40.4 			"/>
			<polyline points="32.4,16.2 39.1,16.2 39.1,40.4 32.4,40.4 			"/>
		</g>
	</g>
	<rect class="st0" width="253.9" height="56.7"/>
</g>
</svg>
