<svg xmlns="http://www.w3.org/2000/svg" width="430.945" height="53.872" viewBox="0 0 430.945 53.872">
  <g id="logo-ressources-educatives" transform="translate(2685 4118.001)">
    <g id="Groupe_2902" data-name="Groupe 2902" transform="translate(-2685 -4117.997)">
      <g id="Groupe_2901" data-name="Groupe 2901" transform="translate(0 -0.003)">
        <path id="Tracé_2530" data-name="Tracé 2530" d="M64.408,16.48h0a5.718,5.718,0,0,1-5.369,2.925,8.426,8.426,0,0,1-6.368-2.552,10.2,10.2,0,0,1-2.48-7.078,9.883,9.883,0,0,1,3.238-7.716A8.715,8.715,0,0,1,59.316,0c4.719,0,7.5,2.5,8.149,6.019H63.2a3.611,3.611,0,0,0-3.756-2.528c-3.31,0-4.923,2.684-4.923,6.187s1.914,6.2,4.972,6.2a3.9,3.9,0,0,0,4.237-3.611v-.084H59.966V9h7.8v9.979H64.817Z" transform="translate(10.225 0.003)"/>
        <path id="Tracé_2531" data-name="Tracé 2531" d="M70.292,7.113h.072A3.816,3.816,0,0,1,74.072,4.5a2.408,2.408,0,0,1,.831.1V8.04h-.1a4.815,4.815,0,0,0-.831-.084c-2.131,0-3.539,1.312-3.539,3.912v6.2H66.5V4.729h3.792Z" transform="translate(13.55 0.92)"/>
        <path id="Tracé_2532" data-name="Tracé 2532" d="M82.889,13.31V11.577a8.535,8.535,0,0,1-2.311.782c-1.733.373-2.564.794-2.564,1.95s.879,1.589,1.962,1.589a2.636,2.636,0,0,0,2.913-2.564m0,3.166h0a4.418,4.418,0,0,1-4.117,1.95c-2.636,0-4.562-1.408-4.562-4.033,0-2.961,2.323-3.72,5.236-4.069,2.408-.325,3.358-.7,3.358-1.7s-.626-1.613-1.974-1.613-2.263.71-2.359,1.709H74.86c.1-2.275,1.95-4.406,5.91-4.406a7.331,7.331,0,0,1,3.816.794A4.261,4.261,0,0,1,86.62,9.116v6.849c0,1.059.144,1.625.506,1.854v.229h-3.84a3.936,3.936,0,0,1-.457-1.625" transform="translate(15.121 0.886)"/>
        <path id="Tracé_2533" data-name="Tracé 2533" d="M90.146,6.779h.072a4.334,4.334,0,0,1,4.117-2.408c2.925,0,4.634,1.962,4.634,4.947v8.775H95.057V10.065A2.155,2.155,0,0,0,92.83,7.657a2.636,2.636,0,0,0-2.564,2.913v7.523H86.33V4.756h3.816Z" transform="translate(17.59 0.893)"/>
        <path id="Tracé_2534" data-name="Tracé 2534" d="M107.8,12.259c0-2.408-.975-4.069-3.009-4.069s-2.781,1.661-2.781,4.045.927,3.96,2.757,3.96,3.033-1.6,3.033-3.936m-9.811,0c0-4.093,2.311-7.054,5.778-7.054a4.466,4.466,0,0,1,3.96,2.239h0c0-.831-.1-1.962-.1-3.082V.27h3.936V18.928h-3.792v-1.95h0a4.213,4.213,0,0,1-4.069,2.408c-3.455,0-5.718-2.684-5.718-7.09" transform="translate(19.966 0.059)"/>
        <path id="Tracé_2535" data-name="Tracé 2535" d="M120.264,9.072h3.611a2.48,2.48,0,0,0,2.793-2.6,2.407,2.407,0,0,0-2.757-2.564H120.3ZM115.93.273h8.294a6.765,6.765,0,0,1,5.032,1.733,6.127,6.127,0,0,1,1.782,4.466c0,3.527-2.408,6.019-6.272,6.019H120.3v6.476h-4.334Z" transform="translate(23.621 0.056)"/>
        <path id="Tracé_2536" data-name="Tracé 2536" d="M137.815,13.3V11.569a8.306,8.306,0,0,1-2.3.758c-1.733.373-2.564.794-2.564,1.95s.879,1.589,1.962,1.589a2.636,2.636,0,0,0,2.9-2.564m0,3.166h0a4.418,4.418,0,0,1-4.033,1.974c-2.636,0-4.562-1.408-4.562-4.033,0-2.961,2.323-3.72,5.236-4.069,2.408-.325,3.358-.7,3.358-1.7s-.626-1.613-1.974-1.613A2.078,2.078,0,0,0,133.5,8.784h-3.611c.1-2.275,1.95-4.406,5.91-4.406a7.331,7.331,0,0,1,3.84.794,4.261,4.261,0,0,1,2.034,3.984v6.8c0,1.059.144,1.625.494,1.854v.229h-3.948a3.936,3.936,0,0,1-.457-1.625" transform="translate(26.329 0.893)"/>
        <path id="Tracé_2537" data-name="Tracé 2537" d="M140.63,5.411h2.01V1.15h3.86V5.411h2.612v2.5H146.5v6.621c0,1,.554,1.276,1.481,1.276h1.1v2.937a13.061,13.061,0,0,1-2.275.2c-2.48,0-4.165-.807-4.165-3.515V7.915h-2.01Z" transform="translate(28.654 0.238)"/>
        <path id="Tracé_2538" data-name="Tracé 2538" d="M152.768,7.113h.072A3.816,3.816,0,0,1,156.56,4.5a2.407,2.407,0,0,1,.831.1V8.04h-.108a4.815,4.815,0,0,0-.831-.084c-2.131,0-3.527,1.312-3.527,3.912v6.2H149V4.729h3.78Z" transform="translate(30.359 0.92)"/>
        <path id="Tracé_2539" data-name="Tracé 2539" d="M157.13,5.591h3.936V18.928H157.13Zm0-5.321h3.984V3.7H157.13Z" transform="translate(32.016 0.059)"/>
        <path id="Tracé_2540" data-name="Tracé 2540" d="M162.17,4.746h3.792V6.828h.072a4.249,4.249,0,0,1,4.008-2.408,3.72,3.72,0,0,1,3.611,2.528h0A4.815,4.815,0,0,1,177.89,4.42c2.961,0,4.49,1.95,4.49,4.911v8.8h-3.8v-8.2c0-1.457-.71-2.335-1.986-2.335s-2.275,1.2-2.275,2.889v7.6H170.4V9.934c0-1.457-.65-2.335-1.95-2.335s-2.311,1.2-2.311,2.889v7.6H162.2Z" transform="translate(33.043 0.904)"/>
        <path id="Tracé_2541" data-name="Tracé 2541" d="M190.323,11.493c0-2.528-1.107-4.261-3.07-4.261S184.2,8.965,184.2,11.493s1.059,4.213,3.058,4.213,3.07-1.709,3.07-4.213m-10.112,0a7.054,7.054,0,1,1,14.1,0,7.054,7.054,0,1,1-14.1,0" transform="translate(36.717 0.849)"/>
        <path id="Tracé_2542" data-name="Tracé 2542" d="M193.17,5.591h3.936V18.928H193.17Zm0-5.321h3.984V3.7H193.17Z" transform="translate(39.359 0.059)"/>
        <path id="Tracé_2543" data-name="Tracé 2543" d="M202.014,6.779h.084a4.322,4.322,0,0,1,4.1-2.408c2.937,0,4.646,1.962,4.646,4.947v8.775h-3.912V10.065A2.155,2.155,0,0,0,204.7,7.657a2.636,2.636,0,0,0-2.552,2.937v7.523H198.21V4.756h3.8Z" transform="translate(40.386 0.893)"/>
        <path id="Tracé_2544" data-name="Tracé 2544" d="M213.76,10.148h5.694c-.12-1.866-1.2-2.985-2.733-2.985-1.806,0-2.708,1.2-2.961,2.985m-3.888,1.3a6.741,6.741,0,0,1,6.849-7.078,6.585,6.585,0,0,1,4.586,1.709,8.5,8.5,0,0,1,2.155,6.344h-9.726c.253,2.01,1.324,3.214,3.238,3.214a2.5,2.5,0,0,0,2.408-1.3h3.888c-.686,2.347-2.865,4.153-6.3,4.153a6.717,6.717,0,0,1-7.054-7.042" transform="translate(42.76 0.894)"/>
        <path id="Tracé_2545" data-name="Tracé 2545" d="M60.4,36.025c0-3.058-1.745-5.441-3.984-5.441a2.769,2.769,0,0,0-2.058.891c-.915.951-1.2,2.287-1.2,5.128s.494,4.358,1.7,5.164a2.6,2.6,0,0,0,1.517.481c2.408-.084,4.093-2.552,4.093-6.223m-3.1-12.856A43.223,43.223,0,0,0,61.919,23h.722V40.238c0,1.2.6,1.842,1.661,1.842h.891v.42H62.834a8.679,8.679,0,0,0-2.119.265h-.289V39.3c-.421.939-1.565,3.467-4.346,3.467s-5.5-3.009-5.5-6.368,2.492-6.3,5.549-6.3c1.866,0,3.154.915,4.273,3.094V25.408a1.625,1.625,0,0,0-1.721-1.757H57.369Z" transform="translate(10.306 4.69)"/>
        <path id="Tracé_2546" data-name="Tracé 2546" d="M71.48,34.183c.626,0,.831-.229.831-.975,0-2.408-1.2-3.924-3.07-3.924a2.684,2.684,0,0,0-2.408,1.89,7.343,7.343,0,0,0-.506,3.009Zm3.407,2.492a6.789,6.789,0,0,1-.794,2.179,5.284,5.284,0,0,1-4.586,2.72c-3.262,0-5.766-2.865-5.766-6.5,0-3.443,2.408-6.223,5.453-6.223s5.272,2.408,5.585,5.874H66.268c0,1.914,0,6.272,3.611,6.272,2.263,0,4.033-1.661,4.634-4.321Z" transform="translate(12.987 5.882)"/>
        <path id="Tracé_2547" data-name="Tracé 2547" d="M79.71,42.057h2.468c.915,0,1.348-.494,1.432-1.661V25.2c0-1.059-.518-1.661-1.4-1.661H79.746V23.11H89.894v.433H87.908c-.915,0-1.432.6-1.432,1.661V40.54c0,.975.409,1.457,1.2,1.457h2.01c3.274,0,6.1-2.865,6.994-7.078h.373l-.144,7.56H79.71Z" transform="translate(16.241 4.713)"/>
        <path id="Tracé_2548" data-name="Tracé 2548" d="M105.659,35.066c0-3.9-1.2-5.826-3.611-5.826s-3.756,1.866-3.756,6.019c0,3.888,1.2,5.814,3.611,5.814,2.672,0,3.78-1.782,3.78-6.019m-9.8.169c0-3.383,2.841-6.452,5.959-6.452a6.272,6.272,0,0,1,6.223,6.428,6.1,6.1,0,1,1-12.206,0" transform="translate(19.532 5.866)"/>
        <path id="Tracé_2549" data-name="Tracé 2549" d="M109.306,24.728a1.408,1.408,0,1,1,1.408,1.408,1.408,1.408,0,0,1-1.408-1.408m2.528,5.417V36.02c0,4.875,0,5.02.144,5.453.1.193.2.542,1.035.542h.915v.421H107.6v-.421h1c.867,0,1.2-.373,1.2-1.408V32.18c0-.807-.518-1.288-1.432-1.288H107.5v-.433c1.1,0,2.1-.06,2.492-.084l1.553-.2Z" transform="translate(21.904 4.755)"/>
        <path id="Tracé_2550" data-name="Tracé 2550" d="M117.029,31.019c0-.807-.518-1.288-1.432-1.288h-.867V29.3c1.1,0,2.1-.06,2.492-.084l1.553-.2h.373V32.29c.71-1.637,1.457-3.383,3.322-3.383a2.179,2.179,0,0,1,2.323,2.263,1.408,1.408,0,0,1-1.2,1.541,1.2,1.2,0,0,1-1.2-1.288,1.553,1.553,0,0,1,.662-1.2c.229-.193.313-.313.313-.421,0-.289-.289-.433-.794-.433a2.48,2.48,0,0,0-1.637.662c-1.637,1.6-1.7,3.972-1.745,5.838v3.6c0,1.035.277,1.408,1.2,1.408h.915V41.3h-6.392v-.421h1.011c.855,0,1.2-.373,1.2-1.408Z" transform="translate(23.377 5.891)"/>
        <path id="Tracé_2551" data-name="Tracé 2551" d="M131.752,34.187c.638,0,.831-.229.831-.975,0-2.408-1.2-3.924-3.058-3.924a2.66,2.66,0,0,0-2.408,1.89,7.523,7.523,0,0,0-.518,3.009Zm3.443,2.492a6.5,6.5,0,0,1-.807,2.179,5.26,5.26,0,0,1-4.574,2.72c-3.274,0-5.814-2.913-5.814-6.524,0-3.443,2.408-6.223,5.441-6.223s5.272,2.408,5.6,5.874h-8.547c0,1.914,0,6.272,3.611,6.272,2.263,0,4.045-1.661,4.646-4.321Z" transform="translate(25.265 5.878)"/>
        <rect id="Rectangle_1497" data-name="Rectangle 1497" width="6.103" height="1.18" transform="translate(162.808 40.342)"/>
        <path id="Tracé_2552" data-name="Tracé 2552" d="M151.457,25.97l-3.479,9.365H154.6Zm-9.2,16.13c2.757-.06,3.5-2.07,4.249-4.069L152.119,22.9h1.1l5.67,16.648c.807,2.287,1.059,2.552,2.576,2.552h.518v.421H153.01V42.1h2.408c.662,0,1.059-.289,1.059-.807a2.516,2.516,0,0,0-.144-.831L154.876,36.1h-7.223l-.2.518a12.325,12.325,0,0,0-.867,3.238c0,1.372,1.2,2.239,3.106,2.239h.71v.421h-8.2Z" transform="translate(28.974 4.67)"/>
        <path id="Tracé_2553" data-name="Tracé 2553" d="M159.58,30.47c2.9-1,3.756-3.238,4.153-5.91h.578v5.622H168.3v.807h-4.009v8.547c0,1.2.686,2,1.685,2,1.95,0,2.9-1.89,2.925-5.922h.4c0,3.094-.4,4.634-1.457,5.694a3.491,3.491,0,0,1-2.492,1.011,3.021,3.021,0,0,1-3.238-3.419V30.988H159.58Z" transform="translate(32.515 5.008)"/>
        <path id="Tracé_2554" data-name="Tracé 2554" d="M171.335,25.408c0-1.059-.4-1.577-1.2-1.577H169v-.457c1.011,0,2.034-.084,2.408-.12L172.852,23h.662c-.06,5.044-.06,8.486-.06,10.834,0,7.788,0,7.62.349,7.957a1.2,1.2,0,0,0,.855.265h.915v.421h-6.392v-.421H170.2c.855,0,1.144-.373,1.144-1.408Z" transform="translate(34.434 4.69)"/>
        <path id="Tracé_2555" data-name="Tracé 2555" d="M183.913,34.5a16.39,16.39,0,0,1-1.685.6c-1.3.373-3.5,1-3.5,3.383,0,1.432.807,2.408,1.926,2.408,1.745,0,3.262-1.926,3.262-4.129Zm5.236,1.6c0,3.671-.927,5.477-2.72,5.477-1.2,0-1.95-.915-2.323-2.985-.951,2.119-2.119,2.985-4.045,2.985a3.419,3.419,0,0,1-3.611-3.154,2.841,2.841,0,0,1,.879-2.01,7.09,7.09,0,0,1,3.756-1.6,15.253,15.253,0,0,0,2.781-.855v-2.07c0-1.541-.975-2.408-2.781-2.408-1.2,0-2.576.662-2.576,1.264,0,.2.108.313.481.518.662.349.891.686.891,1.2a1.2,1.2,0,0,1-1.2,1.2,1.577,1.577,0,0,1-1.432-1.625c0-1.806,1.926-3.214,4.418-3.214,2.889,0,4.358,1.324,4.358,3.9V38.2c0,1.4.4,2.287,1.023,2.287.975,0,1.432-1.119,1.613-3.9v-.566Z" transform="translate(35.952 5.878)"/>
        <path id="Tracé_2556" data-name="Tracé 2556" d="M192.534,32.611A4.947,4.947,0,0,1,196.915,29a3.96,3.96,0,0,1,2.588.975,5.573,5.573,0,0,1,1.288,3.84v5.67c0,1.035.313,1.408,1.144,1.408h.951v.421h-6.428v-.421h1.011c.855,0,1.2-.373,1.2-1.408V33.057c0-2.408-.662-3.431-2.119-3.431-2.323,0-3.984,2.552-3.984,6.127v3.7c0,1.035.289,1.408,1.144,1.408h.915v.421h-6.392v-.421h.939c.855,0,1.2-.373,1.2-1.408V31.022c0-.807-.518-1.264-1.457-1.264h-.782v-.433h.975c.2,0,1.721-.108,2.034-.144l.867-.144h.566Z" transform="translate(38.334 5.913)"/>
        <path id="Tracé_2557" data-name="Tracé 2557" d="M201.24,30.47c2.9-1,3.756-3.238,4.165-5.91h.566v5.622h3.984v.807h-4.009v8.547c0,1.2.686,2,1.685,2,1.95,0,2.9-1.89,2.925-5.922h.4c0,3.094-.4,4.634-1.457,5.694a3.491,3.491,0,0,1-2.492,1.011,3.021,3.021,0,0,1-3.238-3.419V30.988H201.24Z" transform="translate(41.003 5.008)"/>
        <path id="Tracé_2558" data-name="Tracé 2558" d="M212.5,24.728a1.408,1.408,0,1,1,1.408,1.408,1.408,1.408,0,0,1-1.408-1.408m2.528,5.417V36.02c0,4.875,0,5.02.144,5.453.1.193.2.542,1.035.542h.879v.421h-6.332v-.421h1c.867,0,1.2-.373,1.2-1.408V32.18c0-.807-.518-1.288-1.432-1.288h-.867v-.433c1.1,0,2.1-.06,2.492-.084l1.529-.217Z" transform="translate(42.923 4.755)"/>
        <path id="Tracé_2559" data-name="Tracé 2559" d="M228.289,34.783c0-3.551-1.493-5.646-4.008-5.646a2.973,2.973,0,0,0-2.119.891c-.927.915-1.3,2.468-1.3,5.309,0,3.094.927,5.694,3.238,5.694,2.588-.084,4.189-2.516,4.189-6.247m2.034-5.959c-.06,5.044-.06,8.426-.06,10.665,0,7.68,0,7.5.349,7.848a1.2,1.2,0,0,0,.855.253h.891v.433h-6.38v-.433h1c.855,0,1.144-.373,1.144-1.4V38.37c-1,2.179-2.408,3.238-4.273,3.238-2.8,0-5.417-3.154-5.417-6.512s2.7-6.416,5.79-6.416c1.95,0,3.5,1.2,4.5,3.443a6.729,6.729,0,0,0,1.12-3.3Z" transform="translate(44.506 5.847)"/>
        <path id="Tracé_2560" data-name="Tracé 2560" d="M230.762,29.279a17.033,17.033,0,0,0,3.154-.2,5.116,5.116,0,0,1,.746-.072h.662V38.4c0,1.517.662,2.408,1.83,2.408,2.1,0,3.876-2.781,3.876-6.019v-3.7c0-.975-.457-1.372-1.553-1.372H238.02V29.28h1.721a12.843,12.843,0,0,0,2.408-.289h1.035V39.33c0,1.119.421,1.553,1.541,1.553h.578V41.3h-2.925a6.128,6.128,0,0,1-.626,0l-.746.06V37.874c-1.119,2.408-2.612,3.611-4.442,3.611a3.467,3.467,0,0,1-3.407-3.7V30.856a1.2,1.2,0,0,0-1.2-1.144h-1.2Z" transform="translate(47.016 5.911)"/>
        <path id="Tracé_2561" data-name="Tracé 2561" d="M252.3,34.183c.638,0,.831-.229.831-.975,0-2.408-1.2-3.924-3.058-3.924a2.66,2.66,0,0,0-2.468,1.89,7.524,7.524,0,0,0-.518,3.009Zm3.443,2.492a6.5,6.5,0,0,1-.807,2.179,5.272,5.272,0,0,1-4.586,2.72c-3.262,0-5.754-2.865-5.754-6.5,0-3.443,2.408-6.223,5.441-6.223s5.272,2.408,5.585,5.874h-8.535c0,1.914,0,6.272,3.611,6.272,2.263,0,4.045-1.661,4.646-4.321Z" transform="translate(49.838 5.882)"/>
        <rect id="Rectangle_1498" data-name="Rectangle 1498" width="29.107" height="8.065" transform="translate(8.944 0.317)"/>
        <rect id="Rectangle_1499" data-name="Rectangle 1499" width="29.107" height="8.065" transform="translate(8.956 39.282)"/>
        <path id="Tracé_2562" data-name="Tracé 2562" d="M0,7.71H8.065V36.817H0" transform="translate(0 1.575)"/>
        <path id="Tracé_2563" data-name="Tracé 2563" d="M32.37,7.71h8.053V36.817H32.37" transform="translate(6.596 1.575)"/>
      </g>
    </g>
    <path id="Tracé_2629" data-name="Tracé 2629" d="M10.608,0H8.432L6.976-3.792a1.271,1.271,0,0,0-.592-.736,2.254,2.254,0,0,0-1.04-.208H3.28V0H1.232V-11.392h4.88a4.466,4.466,0,0,1,2.944.848,3,3,0,0,1,1.008,2.432,3.1,3.1,0,0,1-.6,1.928,3.248,3.248,0,0,1-1.7,1.128A1.99,1.99,0,0,1,9.216-3.648ZM5.824-6.336a2.821,2.821,0,0,0,1.728-.432,1.553,1.553,0,0,0,.56-1.312A1.522,1.522,0,0,0,7.56-9.368a2.856,2.856,0,0,0-1.736-.424H3.248v3.456Zm13.568,2.4H13.824a2.918,2.918,0,0,0,.648,1.912,2.282,2.282,0,0,0,1.736.616,3.987,3.987,0,0,0,2.464-.864L19.248-.9a4.5,4.5,0,0,1-1.416.744,5.356,5.356,0,0,1-1.7.28,4.251,4.251,0,0,1-3.12-1.12,4.118,4.118,0,0,1-1.136-3.072,4.707,4.707,0,0,1,.5-2.192,3.662,3.662,0,0,1,1.392-1.5,3.881,3.881,0,0,1,2.032-.536,3.356,3.356,0,0,1,2.632,1.08,4.287,4.287,0,0,1,.968,2.968ZM15.84-6.848a1.831,1.831,0,0,0-1.3.472,2.311,2.311,0,0,0-.648,1.368h3.76A2.238,2.238,0,0,0,17.1-6.384,1.681,1.681,0,0,0,15.84-6.848ZM24.048.128A5.474,5.474,0,0,1,20.56-.9L21.12-2.3a4.844,4.844,0,0,0,2.96.96,2.139,2.139,0,0,0,1.112-.24.749.749,0,0,0,.392-.672.706.706,0,0,0-.272-.584,2.511,2.511,0,0,0-.928-.376l-1.344-.3Q20.832-4,20.832-5.776a2.149,2.149,0,0,1,.416-1.3,2.732,2.732,0,0,1,1.168-.888,4.424,4.424,0,0,1,1.744-.32,5.275,5.275,0,0,1,1.664.264,4.369,4.369,0,0,1,1.408.76L26.64-5.9a4.166,4.166,0,0,0-2.5-.9,1.919,1.919,0,0,0-1.072.256.8.8,0,0,0-.384.7.715.715,0,0,0,.232.56,1.936,1.936,0,0,0,.792.352l1.376.3a3.473,3.473,0,0,1,1.752.84,2.034,2.034,0,0,1,.552,1.48,2.087,2.087,0,0,1-.9,1.776A4.066,4.066,0,0,1,24.048.128Zm8.016,0A5.474,5.474,0,0,1,28.576-.9l.56-1.408a4.844,4.844,0,0,0,2.96.96,2.139,2.139,0,0,0,1.112-.24.749.749,0,0,0,.392-.672.706.706,0,0,0-.272-.584,2.511,2.511,0,0,0-.928-.376l-1.344-.3Q28.848-4,28.848-5.776a2.149,2.149,0,0,1,.416-1.3,2.732,2.732,0,0,1,1.168-.888,4.424,4.424,0,0,1,1.744-.32,5.275,5.275,0,0,1,1.664.264,4.369,4.369,0,0,1,1.408.76L34.656-5.9a4.166,4.166,0,0,0-2.5-.9,1.919,1.919,0,0,0-1.072.256.8.8,0,0,0-.384.7.715.715,0,0,0,.232.56,1.936,1.936,0,0,0,.792.352l1.376.3a3.473,3.473,0,0,1,1.752.84,2.034,2.034,0,0,1,.552,1.48,2.087,2.087,0,0,1-.9,1.776A4.066,4.066,0,0,1,32.064.128Zm8.72,0a4.446,4.446,0,0,1-2.168-.512,3.5,3.5,0,0,1-1.44-1.464,4.7,4.7,0,0,1-.5-2.232,4.7,4.7,0,0,1,.5-2.232,3.5,3.5,0,0,1,1.44-1.464,4.446,4.446,0,0,1,2.168-.512,4.366,4.366,0,0,1,2.144.512A3.51,3.51,0,0,1,44.36-6.312a4.7,4.7,0,0,1,.5,2.232,4.7,4.7,0,0,1-.5,2.232A3.51,3.51,0,0,1,42.928-.384,4.366,4.366,0,0,1,40.784.128ZM40.768-1.44a1.887,1.887,0,0,0,1.56-.664,3.1,3.1,0,0,0,.536-1.976,3.1,3.1,0,0,0-.544-1.976,1.855,1.855,0,0,0-1.536-.68,1.872,1.872,0,0,0-1.552.68,3.1,3.1,0,0,0-.544,1.976A3.1,3.1,0,0,0,39.224-2.1,1.869,1.869,0,0,0,40.768-1.44ZM53.952-8.08V0H52V-1.248A2.625,2.625,0,0,1,50.976-.224,3,3,0,0,1,49.5.128q-2.96,0-2.96-3.328V-8.08h1.984v4.9a1.949,1.949,0,0,0,.36,1.3A1.393,1.393,0,0,0,50-1.472a1.818,1.818,0,0,0,1.408-.576,2.185,2.185,0,0,0,.528-1.536v-4.5Zm6.528-.192a2.247,2.247,0,0,1,.8.128L61.264-6.32a2.781,2.781,0,0,0-1.056-.208,2,2,0,0,0-1.56.592,2.247,2.247,0,0,0-.536,1.568V0H56.128V-5.792A18.319,18.319,0,0,0,56-8.08h1.872l.16,1.424a2.4,2.4,0,0,1,.96-1.2A2.719,2.719,0,0,1,60.48-8.272ZM65.9.128a4.469,4.469,0,0,1-2.192-.512,3.483,3.483,0,0,1-1.424-1.448,4.634,4.634,0,0,1-.5-2.2,4.6,4.6,0,0,1,.52-2.224,3.714,3.714,0,0,1,1.472-1.5,4.408,4.408,0,0,1,2.2-.536,5.206,5.206,0,0,1,1.672.272,3.256,3.256,0,0,1,1.288.752l-.56,1.408A3.884,3.884,0,0,0,67.3-6.488,3.22,3.22,0,0,0,66.16-6.7a2.158,2.158,0,0,0-1.7.68,2.847,2.847,0,0,0-.608,1.96,2.841,2.841,0,0,0,.6,1.952,2.165,2.165,0,0,0,1.7.672A3.119,3.119,0,0,0,67.3-1.664a4.048,4.048,0,0,0,1.088-.64L68.944-.9a3.552,3.552,0,0,1-1.328.752A5.378,5.378,0,0,1,65.9.128ZM77.36-3.936H71.792a2.918,2.918,0,0,0,.648,1.912,2.282,2.282,0,0,0,1.736.616,3.987,3.987,0,0,0,2.464-.864L77.216-.9A4.5,4.5,0,0,1,75.8-.152a5.356,5.356,0,0,1-1.7.28,4.251,4.251,0,0,1-3.12-1.12A4.118,4.118,0,0,1,69.84-4.064a4.707,4.707,0,0,1,.5-2.192,3.662,3.662,0,0,1,1.392-1.5,3.881,3.881,0,0,1,2.032-.536,3.356,3.356,0,0,1,2.632,1.08A4.287,4.287,0,0,1,77.36-4.24ZM73.808-6.848a1.831,1.831,0,0,0-1.3.472,2.311,2.311,0,0,0-.648,1.368h3.76a2.238,2.238,0,0,0-.552-1.376A1.681,1.681,0,0,0,73.808-6.848ZM82.016.128A5.474,5.474,0,0,1,78.528-.9l.56-1.408a4.844,4.844,0,0,0,2.96.96,2.139,2.139,0,0,0,1.112-.24.749.749,0,0,0,.392-.672.706.706,0,0,0-.272-.584,2.511,2.511,0,0,0-.928-.376l-1.344-.3Q78.8-4,78.8-5.776a2.149,2.149,0,0,1,.416-1.3,2.732,2.732,0,0,1,1.168-.888,4.424,4.424,0,0,1,1.744-.32,5.275,5.275,0,0,1,1.664.264,4.369,4.369,0,0,1,1.408.76L84.608-5.9a4.166,4.166,0,0,0-2.5-.9,1.919,1.919,0,0,0-1.072.256.8.8,0,0,0-.384.7.715.715,0,0,0,.232.56,1.936,1.936,0,0,0,.792.352l1.376.3a3.473,3.473,0,0,1,1.752.84A2.034,2.034,0,0,1,85.36-2.3a2.087,2.087,0,0,1-.9,1.776A4.066,4.066,0,0,1,82.016.128ZM8.16,13.064H2.592a2.918,2.918,0,0,0,.648,1.912,2.282,2.282,0,0,0,1.736.616,3.987,3.987,0,0,0,2.464-.864L8.016,16.1a4.5,4.5,0,0,1-1.416.744,5.356,5.356,0,0,1-1.7.28,4.251,4.251,0,0,1-3.12-1.12A4.118,4.118,0,0,1,.64,12.936a4.707,4.707,0,0,1,.5-2.192,3.662,3.662,0,0,1,1.392-1.5A3.881,3.881,0,0,1,4.56,8.712a3.356,3.356,0,0,1,2.632,1.08A4.287,4.287,0,0,1,8.16,12.76ZM4.608,10.152a1.831,1.831,0,0,0-1.3.472,2.311,2.311,0,0,0-.648,1.368h3.76a2.238,2.238,0,0,0-.552-1.376A1.681,1.681,0,0,0,4.608,10.152ZM3.9,7.88l1.6-3.3H7.552L5.2,7.88Zm13.68-2.656V17H15.616V15.7a2.6,2.6,0,0,1-1.056,1.048,3.216,3.216,0,0,1-1.568.376,3.341,3.341,0,0,1-1.856-.528,3.515,3.515,0,0,1-1.272-1.5,5.142,5.142,0,0,1-.456-2.216A5.059,5.059,0,0,1,9.856,10.7a3.347,3.347,0,0,1,3.136-1.984,3.249,3.249,0,0,1,1.544.36,2.533,2.533,0,0,1,1.048,1.016V5.224ZM13.52,15.56a1.868,1.868,0,0,0,1.544-.688,3.049,3.049,0,0,0,.552-1.952,3.081,3.081,0,0,0-.544-1.952,1.845,1.845,0,0,0-1.536-.688,1.9,1.9,0,0,0-1.56.68,2.986,2.986,0,0,0-.552,1.928,3.119,3.119,0,0,0,.552,1.968A1.851,1.851,0,0,0,13.52,15.56Zm13.6-6.64V17H25.168V15.752a2.625,2.625,0,0,1-1.024,1.024,3,3,0,0,1-1.472.352q-2.96,0-2.96-3.328V8.92H21.7v4.9a1.949,1.949,0,0,0,.36,1.3,1.393,1.393,0,0,0,1.112.416,1.818,1.818,0,0,0,1.408-.576,2.185,2.185,0,0,0,.528-1.536V8.92Zm5.84,8.208a4.469,4.469,0,0,1-2.192-.512,3.483,3.483,0,0,1-1.424-1.448,4.634,4.634,0,0,1-.5-2.2,4.6,4.6,0,0,1,.52-2.224,3.714,3.714,0,0,1,1.472-1.5,4.408,4.408,0,0,1,2.2-.536,5.206,5.206,0,0,1,1.672.272A3.256,3.256,0,0,1,36,9.736l-.56,1.408a3.884,3.884,0,0,0-1.088-.632,3.22,3.22,0,0,0-1.136-.216,2.158,2.158,0,0,0-1.7.68,2.847,2.847,0,0,0-.608,1.96,2.841,2.841,0,0,0,.6,1.952,2.165,2.165,0,0,0,1.7.672,3.119,3.119,0,0,0,1.136-.224,4.048,4.048,0,0,0,1.088-.64L36,16.1a3.552,3.552,0,0,1-1.328.752A5.378,5.378,0,0,1,32.96,17.128ZM45.072,8.92V17H43.1V15.7a2.6,2.6,0,0,1-1.056,1.048,3.216,3.216,0,0,1-1.568.376,3.448,3.448,0,0,1-1.872-.512,3.381,3.381,0,0,1-1.264-1.456,5.059,5.059,0,0,1-.448-2.192,5.142,5.142,0,0,1,.456-2.216,3.57,3.57,0,0,1,1.272-1.5,3.3,3.3,0,0,1,1.856-.536,3.216,3.216,0,0,1,1.568.376A2.6,2.6,0,0,1,43.1,10.136V8.92Zm-4.048,6.64a1.845,1.845,0,0,0,1.536-.688,3.052,3.052,0,0,0,.544-1.936,3.11,3.11,0,0,0-.544-1.968,1.863,1.863,0,0,0-1.552-.688,1.842,1.842,0,0,0-1.544.712,3.154,3.154,0,0,0-.552,1.976,2.952,2.952,0,0,0,.552,1.92A1.905,1.905,0,0,0,41.024,15.56Zm8.768-5.136V14.04q0,1.424,1.328,1.424a2.83,2.83,0,0,0,.8-.128V16.92a3.762,3.762,0,0,1-1.28.192,2.789,2.789,0,0,1-2.112-.768,3.067,3.067,0,0,1-.736-2.208V10.424H46.24V8.92h1.552V6.952l2-.672V8.92h2.144v1.5Zm3.52-1.5H55.3V17H53.312Zm2.1-3.664V7.224H53.184V5.256Zm9.728,3.68L61.6,17H59.856L56.368,8.936h2.1l2.32,5.792,2.368-5.792ZM73.1,13.064H67.536a2.918,2.918,0,0,0,.648,1.912,2.282,2.282,0,0,0,1.736.616,3.987,3.987,0,0,0,2.464-.864L72.96,16.1a4.5,4.5,0,0,1-1.416.744,5.356,5.356,0,0,1-1.7.28,4.251,4.251,0,0,1-3.12-1.12,4.118,4.118,0,0,1-1.136-3.072,4.707,4.707,0,0,1,.5-2.192,3.662,3.662,0,0,1,1.392-1.5A3.881,3.881,0,0,1,69.5,8.712a3.356,3.356,0,0,1,2.632,1.08A4.287,4.287,0,0,1,73.1,12.76Zm-3.552-2.912a1.831,1.831,0,0,0-1.3.472,2.311,2.311,0,0,0-.648,1.368h3.76a2.238,2.238,0,0,0-.552-1.376A1.681,1.681,0,0,0,69.552,10.152Zm8.208,6.976A5.474,5.474,0,0,1,74.272,16.1l.56-1.408a4.844,4.844,0,0,0,2.96.96,2.139,2.139,0,0,0,1.112-.24.749.749,0,0,0,.392-.672.706.706,0,0,0-.272-.584,2.511,2.511,0,0,0-.928-.376l-1.344-.3q-2.208-.48-2.208-2.256a2.149,2.149,0,0,1,.416-1.3,2.732,2.732,0,0,1,1.168-.888,4.424,4.424,0,0,1,1.744-.32,5.275,5.275,0,0,1,1.664.264,4.369,4.369,0,0,1,1.408.76l-.592,1.36a4.166,4.166,0,0,0-2.5-.9,1.919,1.919,0,0,0-1.072.256.8.8,0,0,0-.384.7.715.715,0,0,0,.232.56,1.936,1.936,0,0,0,.792.352l1.376.3a3.473,3.473,0,0,1,1.752.84A2.034,2.034,0,0,1,81.1,14.7a2.087,2.087,0,0,1-.9,1.776A4.066,4.066,0,0,1,77.76,17.128Z" transform="translate(-2339.415 -4097)"/>
    <line id="Ligne_324" data-name="Ligne 324" y2="46" transform="translate(-2359.415 -4117.5)" fill="none" stroke="#000" stroke-width="1"/>
  </g>
</svg>
